<svg width="32" height="32" viewBox="0 0 32 32" fill="none" xmlns="http://www.w3.org/2000/svg">
<path fill-rule="evenodd" clip-rule="evenodd" d="M9.95333 1.42134C11.5173 1.34934 12.016 1.33334 16 1.33334C19.984 1.33334 20.4827 1.35067 22.0453 1.42134C23.608 1.492 24.6747 1.74134 25.608 2.10267C26.5853 2.472 27.472 3.04934 28.2053 3.796C28.952 4.528 29.528 5.41334 29.896 6.392C30.2587 7.32534 30.5067 8.392 30.5787 9.952C30.6507 11.5187 30.6667 12.0173 30.6667 16C30.6667 19.984 30.6493 20.4827 30.5787 22.0467C30.508 23.6067 30.2587 24.6733 29.896 25.6067C29.528 26.5855 28.951 27.4723 28.2053 28.2053C27.472 28.952 26.5853 29.528 25.608 29.896C24.6747 30.2587 23.608 30.5067 22.048 30.5787C20.4827 30.6507 19.984 30.6667 16 30.6667C12.016 30.6667 11.5173 30.6493 9.95333 30.5787C8.39333 30.508 7.32667 30.2587 6.39333 29.896C5.41456 29.528 4.52776 28.951 3.79467 28.2053C3.04851 27.4729 2.47109 26.5865 2.10267 25.608C1.74133 24.6747 1.49333 23.608 1.42133 22.048C1.34933 20.4813 1.33333 19.9827 1.33333 16C1.33333 12.016 1.35067 11.5173 1.42133 9.95467C1.492 8.392 1.74133 7.32534 2.10267 6.392C2.47163 5.41344 3.04949 4.52709 3.796 3.79467C4.52805 3.04867 5.41396 2.47126 6.392 2.10267C7.32533 1.74134 8.392 1.49334 9.952 1.42134H9.95333ZM21.9267 4.06134C20.38 3.99067 19.916 3.976 16 3.976C12.084 3.976 11.62 3.99067 10.0733 4.06134C8.64267 4.12667 7.86667 4.36534 7.34933 4.56667C6.66533 4.83334 6.176 5.14934 5.66267 5.66267C5.17606 6.13607 4.80157 6.71238 4.56667 7.34934C4.36533 7.86667 4.12667 8.64267 4.06133 10.0733C3.99067 11.62 3.976 12.084 3.976 16C3.976 19.916 3.99067 20.38 4.06133 21.9267C4.12667 23.3573 4.36533 24.1333 4.56667 24.6507C4.80133 25.2867 5.176 25.864 5.66267 26.3373C6.136 26.824 6.71333 27.1987 7.34933 27.4333C7.86667 27.6347 8.64267 27.8733 10.0733 27.9387C11.62 28.0093 12.0827 28.024 16 28.024C19.9173 28.024 20.38 28.0093 21.9267 27.9387C23.3573 27.8733 24.1333 27.6347 24.6507 27.4333C25.3347 27.1667 25.824 26.8507 26.3373 26.3373C26.824 25.864 27.1987 25.2867 27.4333 24.6507C27.6347 24.1333 27.8733 23.3573 27.9387 21.9267C28.0093 20.38 28.024 19.916 28.024 16C28.024 12.084 28.0093 11.62 27.9387 10.0733C27.8733 8.64267 27.6347 7.86667 27.4333 7.34934C27.1667 6.66534 26.8507 6.176 26.3373 5.66267C25.8639 5.1761 25.2876 4.80162 24.6507 4.56667C24.1333 4.36534 23.3573 4.12667 21.9267 4.06134ZM14.1267 20.5213C15.1729 20.9568 16.3378 21.0156 17.4226 20.6876C18.5073 20.3596 19.4445 19.6652 20.0741 18.723C20.7038 17.7808 20.9867 16.6492 20.8747 15.5215C20.7627 14.3938 20.2627 13.34 19.46 12.54C18.9483 12.0286 18.3296 11.6371 17.6484 11.3935C16.9673 11.15 16.2406 11.0605 15.5207 11.1315C14.8007 11.2025 14.1055 11.4322 13.4851 11.8042C12.8646 12.1761 12.3343 12.681 11.9324 13.2825C11.5305 13.8839 11.2669 14.5671 11.1607 15.2826C11.0545 15.9982 11.1082 16.7284 11.3181 17.4207C11.5279 18.113 11.8886 18.7501 12.3743 19.2863C12.8599 19.8224 13.4584 20.2442 14.1267 20.5213ZM10.6693 10.6693C11.3694 9.9693 12.2004 9.41401 13.1151 9.03515C14.0297 8.6563 15.01 8.4613 16 8.4613C16.99 8.4613 17.9703 8.6563 18.8849 9.03515C19.7996 9.41401 20.6306 9.9693 21.3307 10.6693C22.0307 11.3694 22.586 12.2004 22.9649 13.1151C23.3437 14.0297 23.5387 15.01 23.5387 16C23.5387 16.99 23.3437 17.9703 22.9649 18.8849C22.586 19.7996 22.0307 20.6306 21.3307 21.3307C19.9169 22.7445 17.9994 23.5387 16 23.5387C14.0006 23.5387 12.0831 22.7445 10.6693 21.3307C9.25555 19.9169 8.4613 17.9994 8.4613 16C8.4613 14.0006 9.25555 12.0831 10.6693 10.6693ZM25.2107 9.584C25.3841 9.42036 25.523 9.22358 25.6191 9.0053C25.7151 8.78703 25.7664 8.55169 25.7699 8.31324C25.7734 8.07479 25.729 7.83807 25.6393 7.61708C25.5497 7.3961 25.4166 7.19535 25.2479 7.02672C25.0793 6.85809 24.8786 6.72501 24.6576 6.63536C24.4366 6.54571 24.1999 6.5013 23.9614 6.50478C23.723 6.50826 23.4876 6.55954 23.2694 6.6556C23.0511 6.75165 22.8543 6.89053 22.6907 7.064C22.3724 7.40138 22.1982 7.8495 22.2049 8.31324C22.2117 8.77699 22.3989 9.21984 22.7269 9.54779C23.0548 9.87575 23.4977 10.063 23.9614 10.0697C24.4252 10.0765 24.8733 9.90226 25.2107 9.584Z" fill="black"/>
</svg>
