<svg width="32" height="32" viewBox="0 0 32 32" fill="none" xmlns="http://www.w3.org/2000/svg">
<path fill-rule="evenodd" clip-rule="evenodd" d="M1.33334 3.784C1.33334 3.13404 1.59153 2.5107 2.05112 2.05112C2.51071 1.59153 3.13405 1.33333 3.784 1.33333H28.2133C28.5354 1.33281 28.8545 1.39582 29.1522 1.51875C29.4499 1.64169 29.7205 1.82214 29.9483 2.04978C30.1762 2.27742 30.357 2.54776 30.4802 2.84534C30.6035 3.14293 30.6668 3.4619 30.6667 3.784V28.2133C30.667 28.5355 30.6038 28.8546 30.4808 29.1523C30.3577 29.45 30.1771 29.7205 29.9494 29.9484C29.7216 30.1763 29.4512 30.357 29.1535 30.4802C28.8559 30.6035 28.5368 30.6668 28.2147 30.6667H3.784C3.46206 30.6667 3.14328 30.6032 2.84587 30.48C2.54845 30.3568 2.27823 30.1761 2.05065 29.9484C1.82307 29.7207 1.64258 29.4504 1.5195 29.1529C1.39642 28.8554 1.33316 28.5366 1.33334 28.2147V3.784ZM12.944 12.5173H16.916V14.512C17.4893 13.3653 18.956 12.3333 21.16 12.3333C25.3853 12.3333 26.3867 14.6173 26.3867 18.808V26.5707H22.1107V19.7627C22.1107 17.376 21.5373 16.0293 20.0813 16.0293C18.0613 16.0293 17.2213 17.4813 17.2213 19.7627V26.5707H12.944V12.5173ZM5.61067 26.388H9.888V12.3333H5.61067V26.3867V26.388ZM10.5 7.74933C10.5081 8.11556 10.4429 8.47971 10.3083 8.82042C10.1737 9.16112 9.97247 9.47151 9.71631 9.73337C9.46015 9.99524 9.15427 10.2033 8.81661 10.3453C8.47895 10.4874 8.11632 10.5606 7.75 10.5606C7.38368 10.5606 7.02105 10.4874 6.6834 10.3453C6.34574 10.2033 6.03985 9.99524 5.78369 9.73337C5.52753 9.47151 5.32626 9.16112 5.19168 8.82042C5.05711 8.47971 4.99194 8.11556 5 7.74933C5.01583 7.03047 5.31252 6.34639 5.82652 5.84358C6.34052 5.34077 7.03097 5.05922 7.75 5.05922C8.46904 5.05922 9.15949 5.34077 9.67349 5.84358C10.1875 6.34639 10.4842 7.03047 10.5 7.74933Z" fill="black"/>
</svg>
