<svg width="32" height="32" viewBox="0 0 32 32" fill="none" xmlns="http://www.w3.org/2000/svg">
<path d="M31.524 6.58266C30.4107 7.076 29.2147 7.40933 27.9573 7.56C29.2547 6.78372 30.2253 5.56195 30.688 4.12267C29.4691 4.84665 28.1351 5.35626 26.744 5.62933C25.8085 4.63049 24.5694 3.96843 23.2191 3.74596C21.8688 3.52349 20.4828 3.75305 19.2763 4.399C18.0698 5.04495 17.1104 6.07115 16.5469 7.31827C15.9834 8.56539 15.8474 9.96366 16.16 11.296C13.6902 11.172 11.2742 10.5301 9.06856 9.41187C6.86296 8.29368 4.91712 6.72421 3.35733 4.80533C2.824 5.72533 2.51733 6.792 2.51733 7.928C2.51674 8.95066 2.76858 9.95765 3.2505 10.8596C3.73243 11.7616 4.42955 12.5307 5.28 13.0987C4.2937 13.0673 3.32916 12.8008 2.46667 12.3213V12.4013C2.46657 13.8357 2.96271 15.2258 3.87091 16.336C4.77911 17.4461 6.04343 18.2079 7.44933 18.492C6.53438 18.7396 5.57512 18.7761 4.644 18.5987C5.04066 19.8328 5.81333 20.912 6.85382 21.6852C7.89432 22.4584 9.15056 22.8869 10.4467 22.9107C8.24644 24.6379 5.52918 25.5748 2.732 25.5707C2.23651 25.5708 1.74143 25.5419 1.24933 25.484C4.08863 27.3096 7.39379 28.2784 10.7693 28.2747C22.196 28.2747 28.4427 18.8107 28.4427 10.6027C28.4427 10.336 28.436 10.0667 28.424 9.8C29.6391 8.9213 30.6879 7.83319 31.5213 6.58666L31.524 6.58266Z" fill="black"/>
</svg>
