<svg width="32" height="22" viewBox="0 0 32 22" fill="none" xmlns="http://www.w3.org/2000/svg">
<g id="Group">
<g id="Group_2">
<path id="Vector" d="M31.3333 3.676C31.1521 3.02964 30.7992 2.44446 30.312 1.98267C29.811 1.50667 29.1971 1.16618 28.528 0.993333C26.024 0.333333 15.992 0.333333 15.992 0.333333C11.8098 0.28575 7.62857 0.495032 3.472 0.959999C2.80292 1.14562 2.19008 1.49372 1.688 1.97333C1.19467 2.448 0.837332 3.03333 0.650666 3.67467C0.202256 6.09032 -0.0156117 8.54313 -1.06363e-06 11C-0.0160011 13.4547 0.201332 15.9067 0.650666 18.3253C0.833332 18.964 1.18933 19.5467 1.684 20.0173C2.17867 20.488 2.79467 20.828 3.472 21.008C6.00933 21.6667 15.992 21.6667 15.992 21.6667C20.1796 21.7143 24.3661 21.505 28.528 21.04C29.1971 20.8672 29.811 20.5267 30.312 20.0507C30.799 19.589 31.1516 19.0037 31.332 18.3573C31.7921 15.9426 32.0158 13.4888 32 11.0307C32.0346 8.56214 31.8112 6.09675 31.3333 3.67467V3.676ZM12.8027 15.5653V6.436L21.1493 11.0013L12.8027 15.5653Z" fill="black"/>
</g>
</g>
</svg>
